Coordinates
version=1
nRows=12
nColumns=23
inDegrees=yes

Units are S.I. units (second, meters, Newtons, ...)
If the header above contains a line with 'inDegrees', this indicates whether rotational values are in degrees (yes) or radians (no).

endheader
time	pelvis_tilt	pelvis_list	pelvis_rotation	pelvis_tx	pelvis_ty	pelvis_tz	hip_flexion_r	hip_adduction_r	hip_rotation_r	knee_angle_r	knee_angle_r_beta	ankle_angle_r	subtalar_angle_r	mtp_angle_r	hip_flexion_l	hip_adduction_l	hip_rotation_l	knee_angle_l	knee_angle_l_beta	ankle_angle_l	subtalar_angle_l	mtp_angle_l
      0.00000000	     -8.34002732	     -3.95987555	      2.56778266	      2.22045331	      1.03296304	      1.05389291	     27.64688468	      5.53118595	     -1.36859539	     11.74617317	      0.20500940	      7.35110893	      2.03656502	      0.00000000	    -11.38947085	     -3.22856969	     -2.65014915	     21.95260785	      0.38314529	    -19.64361839	     -0.77380176	      0.00000000
      0.00666667	     -8.27234893	     -3.92650563	      2.36193621	      2.22047598	      1.03192115	      1.05435535	     27.16822333	      5.63658621	     -0.72604070	     10.46392319	      0.18262991	      7.30297041	      1.86488844	      0.00000000	    -10.68252800	     -3.28337468	     -2.82946945	     24.99364650	      0.43622142	    -19.97352251	     -1.86892209	      0.00000000
      0.01333333	     -8.25883225	     -3.88101411	      2.12050563	      2.22046596	      1.03061782	      1.05472678	     26.56119686	      5.81387034	      0.79885191	      8.87298369	      0.15486278	      6.69146858	      0.05333433	      0.00000000	     -9.95564548	     -3.34779270	     -3.15687067	     27.98074247	      0.48835608	    -20.13937798	     -2.50095585	      0.00000000
      0.02000000	     -8.05881441	     -3.89241419	      1.90614986	      2.22048718	      1.02923899	      1.05515773	     26.02750868	      5.92055274	      1.09741777	      7.97435713	      0.13917879	      6.80136050	      0.09752189	      0.00000000	     -9.51252513	     -3.39654045	     -3.12827012	     30.80092629	      0.53757758	    -20.32617946	     -3.50955851	      0.00000000
      0.02666667	     -7.92110159	     -3.87627372	      1.64418476	      2.22047255	      1.02747655	      1.05562672	     25.52625832	      6.05718850	      1.86590326	      7.21263347	      0.12588420	      6.48446629	     -0.95484329	      0.00000000	     -8.97304146	     -3.37847222	     -3.04933111	     33.66554877	      0.58757467	    -20.32208039	     -4.31024686	      0.00000000
      0.03333333	     -7.56491175	     -3.94384018	      1.39841638	      2.22050691	      1.02565122	      1.05605583	     24.94243731	      6.23330398	      1.93230356	      6.98724546	      0.12195044	      6.38537260	     -1.15402081	      0.00000000	     -8.67030219	     -3.40920125	     -2.85819998	     36.50372118	      0.63711012	    -20.23529303	     -5.16850167	      0.00000000
      0.04000000	     -7.31256499	     -4.01701108	      1.08913693	      2.22040195	      1.02331918	      1.05658262	     24.57665301	      6.45618583	      2.11470826	      7.21131976	      0.12586127	      6.07843650	     -1.76217739	      0.00000000	     -8.17177301	     -3.40696873	     -2.64468484	     39.47390118	      0.68894954	    -19.89967032	     -5.84364116	      0.00000000
      0.04666667	     -6.73411113	     -4.18884230	      0.79616787	      2.22044732	      1.02103341	      1.05711188	     23.90863494	      6.77487550	      2.00888559	      7.80139974	      0.13616011	      5.84047419	     -2.20792680	      0.00000000	     -8.02797108	     -3.53113899	     -2.51756860	     42.40438911	      0.74009621	    -19.59969672	     -6.59298239	      0.00000000
      0.05333333	     -6.44507627	     -4.35703553	      0.47837858	      2.22025115	      1.01798944	      1.05773324	     23.72884278	      7.09007929	      1.83321897	      8.95077701	      0.15622053	      5.40705354	     -2.80252998	      0.00000000	     -7.42158744	     -3.66992102	     -2.43232297	     45.56638292	      0.79528341	    -19.04725147	     -6.94562381	      0.00000000
      0.06000000	     -5.80802630	     -4.65555033	      0.15465292	      2.22014576	      1.01498538	      1.05839769	     23.22768821	      7.54927413	      1.56290564	     10.42366885	      0.18192734	      4.87526589	     -3.38055497	      0.00000000	     -7.20316707	     -3.95553997	     -2.42584605	     48.65572201	      0.84920255	    -18.55914306	     -7.46498507	      0.00000000
      0.06666667	     -5.58390871	     -4.86941897	     -0.23978502	      2.21976706	      1.01104074	      1.05921591	     23.44169954	      7.88945342	      0.99805150	     12.58667783	      0.21967897	      4.49031382	     -3.63046507	      0.00000000	     -6.39923040	     -4.23771031	     -2.60709216	     51.95158586	      0.90672622	    -17.87852068	     -7.50351114	      0.00000000
      0.07333333	     -5.15855007	     -5.16079828	     -0.60953027	      2.21936424	      1.00700234	      1.06006495	     23.46964831	      8.29900567	      0.45609576	     14.94589478	      0.26085507	      4.02464531	     -4.06758740	      0.00000000	     -5.79054789	     -4.64020188	     -2.83026979	     55.20595126	      0.96352562	    -17.28336646	     -7.70687682	      0.00000000
